<?xml version="1.0" encoding="UTF-8" standalone="no"?>
<svg
   xmlns:dc="http://purl.org/dc/elements/1.1/"
   xmlns:cc="http://creativecommons.org/ns#"
   xmlns:rdf="http://www.w3.org/1999/02/22-rdf-syntax-ns#"
   xmlns:svg="http://www.w3.org/2000/svg"
   xmlns="http://www.w3.org/2000/svg"
   xmlns:sodipodi="http://sodipodi.sourceforge.net/DTD/sodipodi-0.dtd"
   xmlns:inkscape="http://www.inkscape.org/namespaces/inkscape"
   viewBox="-250 -250 1600 900"
   preserveAspectRatio="xMinYMin meet"
   style="cursor:pointer;"
   id="svg5553"
   version="1.1"
   inkscape:version="0.48.2 r9819"
   width="100%"
   height="100%"
   sodipodi:docname="doorbell3.svg">
  <metadata
     id="metadata5635">
    <rdf:RDF>
      <cc:Work
         rdf:about="">
        <dc:format>image/svg+xml</dc:format>
        <dc:type
           rdf:resource="http://purl.org/dc/dcmitype/StillImage" />
      </cc:Work>
    </rdf:RDF>
  </metadata>
  <defs
     id="defs5633" />
  <sodipodi:namedview
     pagecolor="#ffffff"
     bordercolor="#666666"
     borderopacity="1"
     objecttolerance="10"
     gridtolerance="10"
     guidetolerance="10"
     inkscape:pageopacity="0"
     inkscape:pageshadow="2"
     inkscape:window-width="1280"
     inkscape:window-height="718"
     id="namedview5631"
     showgrid="false"
     showguides="true"
     inkscape:guide-bbox="true"
     inkscape:zoom="0.5"
     inkscape:cx="526.71863"
     inkscape:cy="462.83668"
     inkscape:window-x="0"
     inkscape:window-y="0"
     inkscape:window-maximized="1"
     inkscape:current-layer="svg5553">
    <sodipodi:guide
       orientation="0,1"
       position="-62,462"
       id="guide6173" />
  </sodipodi:namedview>
  <title
     id="title5555">box</title>
  <desc
     id="desc5557">parametric pressfit box. Dimensions are outer dimensions in mm.</desc>
  <g
     transform="translate(10.629921 10.629921)"
     id="g5559"
     style="fill:none;stroke:#0000ff;stroke-opacity:1;stroke-width:0.03543307;stroke-miterlimit:4;stroke-dasharray:none">
    <title
       id="title5561">bottom</title>
    <path
       x1="0mm"
       y1="0mm"
       x2="531.49605mm"
       y2="0mm"
       joint="10.629921 35.43307 10.629921 10.629921"
       mill="0"
       style="fill:none;stroke:#0000ff;stroke-opacity:1;stroke-width:0.03543307;stroke-miterlimit:4;stroke-dasharray:none"
       d="M0.00,0.00 49.9,0.00 49.9,0.00 49.9,10.6 49.9,10.6 89.1,10.6 89.1,10.6 89.1,0.00 89.1,0.00 128,0.00 128,0.00 128,10.6 128,10.6 168,10.6 168,10.6 168,0.00 168,0.00 207,0.00 207,0.00 207,10.6 207,10.6 246,10.6 246,10.6 246,0.00 246,0.00 285,0.00 285,0.00 285,10.6 285,10.6 325,10.6 325,10.6 325,0.00 325,0.00 364,0.00 364,0.00 364,10.6 364,10.6 403,10.6 403,10.6 403,0.00 403,0.00 442,0.00 442,0.00 442,10.6 442,10.6 482,10.6 482,10.6 482,0.00 482,0.00 531,0.00"
       id="path5563" />
    <path
       x1="531.49605"
       y1="0"
       x2="531.49605"
       y2="354.3307"
       joint="10.629921 35.43307 10.629921 10.629921"
       mill="0"
       style="fill:none;stroke:#0000ff;stroke-opacity:1;stroke-width:0.03543307;stroke-miterlimit:4;stroke-dasharray:none"
       d="M531,0.00 531,47.6 531,47.6 521,47.6 521,47.6 521,84.6 521,84.6 531,84.6 531,84.6 531,122 531,122 521,122 521,122 521,159 521,159 531,159 531,159 531,196 531,196 521,196 521,196 521,233 521,233 531,233 531,233 531,270 531,270 521,270 521,270 521,307 521,307 531,307 531,307 531,354"
       id="path5565" />
    <path
       x1="531.49605"
       y1="354.3307"
       x2="0"
       y2="354.3307"
       joint="10.629921 35.43307 10.629921 10.629921"
       mill="0"
       style="fill:none;stroke:#0000ff;stroke-opacity:1;stroke-width:0.03543307;stroke-miterlimit:4;stroke-dasharray:none"
       d="M531,354 482,354 482,354 482,344 442,344 442,344 442,354 442,354 403,354 403,354 403,344 364,344 364,344 364,354 364,354 325,354 325,354 325,344 285,344 285,344 285,354 285,354 246,354 246,354 246,344 207,344 207,344 207,354 207,354 168,354 168,354 168,344 128,344 128,344 128,354 128,354 89.1,354 89.1,354 89.1,344 49.9,344 49.9,344 49.9,354 49.9,354 0.00,354"
       id="path5567" />
    <path
       x1="0"
       y1="354.3307"
       x2="0"
       y2="0"
       joint="10.629921 35.43307 10.629921 10.629921"
       mill="0"
       style="fill:none;stroke:#0000ff;stroke-opacity:1;stroke-width:0.03543307;stroke-miterlimit:4;stroke-dasharray:none"
       d="M0.00,354 2.92e-15,307 2.92e-15,307 10.6,307 10.6,307 10.6,270 5.18e-15,270 5.18e-15,270 7.45e-15,233 7.45e-15,233 10.6,233 10.6,233 10.6,196 9.71e-15,196 9.71e-15,196 1.20e-14,159 1.20e-14,159 10.6,159 10.6,159 10.6,122 1.42e-14,122 1.42e-14,122 1.65e-14,84.6 1.65e-14,84.6 10.6,84.6 10.6,84.6 10.6,47.6 1.88e-14,47.6 1.88e-14,47.6 2.17e-14,0.00"
       id="path5569" />
  </g>
  <g
     transform="translate(754.724391 10.629921)"
     id="g5571"
     style="fill:none;stroke:#0000ff;stroke-opacity:1;stroke-width:0.03543307;stroke-miterlimit:4;stroke-dasharray:none">
    <title
       id="title5573">top</title>
    <path
       x1="0"
       y1="0"
       x2="531.49605"
       y2="0"
       joint="10.629921 35.43307 10.629921 10.629921"
       mill="0"
       style="fill:none;stroke:#0000ff;stroke-opacity:1;stroke-width:0.03543307;stroke-miterlimit:4;stroke-dasharray:none"
       d="M0.00,0.00 49.9,0.00 49.9,0.00 49.9,10.6 49.9,10.6 89.1,10.6 89.1,10.6 89.1,0.00 89.1,0.00 128,0.00 128,0.00 128,10.6 128,10.6 168,10.6 168,10.6 168,0.00 168,0.00 207,0.00 207,0.00 207,10.6 207,10.6 246,10.6 246,10.6 246,0.00 246,0.00 285,0.00 285,0.00 285,10.6 285,10.6 325,10.6 325,10.6 325,0.00 325,0.00 364,0.00 364,0.00 364,10.6 364,10.6 403,10.6 403,10.6 403,0.00 403,0.00 442,0.00 442,0.00 442,10.6 442,10.6 482,10.6 482,10.6 482,0.00 482,0.00 531,0.00"
       id="path5575" />
    <path
       x1="531.49605"
       y1="0"
       x2="531.49605"
       y2="354.3307"
       joint="10.629921 35.43307 10.629921 10.629921"
       mill="0"
       style="fill:none;stroke:#0000ff;stroke-opacity:1;stroke-width:0.03543307;stroke-miterlimit:4;stroke-dasharray:none"
       d="M531,0.00 531,47.6 531,47.6 521,47.6 521,47.6 521,84.6 521,84.6 531,84.6 531,84.6 531,122 531,122 521,122 521,122 521,159 521,159 531,159 531,159 531,196 531,196 521,196 521,196 521,233 521,233 531,233 531,233 531,270 531,270 521,270 521,270 521,307 521,307 531,307 531,307 531,354"
       id="path5577" />
    <path
       x1="531.49605"
       y1="354.3307"
       x2="0"
       y2="354.3307"
       joint="10.629921 35.43307 10.629921 10.629921"
       mill="0"
       style="fill:none;stroke:#0000ff;stroke-opacity:1;stroke-width:0.03543307;stroke-miterlimit:4;stroke-dasharray:none"
       d="M531,354 482,354 482,354 482,344 442,344 442,344 442,354 442,354 403,354 403,354 403,344 364,344 364,344 364,354 364,354 325,354 325,354 325,344 285,344 285,344 285,354 285,354 246,354 246,354 246,344 207,344 207,344 207,354 207,354 168,354 168,354 168,344 128,344 128,344 128,354 128,354 89.1,354 89.1,354 89.1,344 49.9,344 49.9,344 49.9,354 49.9,354 0.00,354"
       id="path5579" />
    <path
       x1="0"
       y1="354.3307"
       x2="0"
       y2="0"
       joint="10.629921 35.43307 10.629921 10.629921"
       mill="0"
       style="fill:none;stroke:#0000ff;stroke-opacity:1;stroke-width:0.03543307;stroke-miterlimit:4;stroke-dasharray:none"
       d="M0.00,354 2.92e-15,307 2.92e-15,307 10.6,307 10.6,307 10.6,270 5.18e-15,270 5.18e-15,270 7.45e-15,233 7.45e-15,233 10.6,233 10.6,233 10.6,196 9.71e-15,196 9.71e-15,196 1.20e-14,159 1.20e-14,159 10.6,159 10.6,159 10.6,122 1.42e-14,122 1.42e-14,122 1.65e-14,84.6 1.65e-14,84.6 10.6,84.6 10.6,84.6 10.6,47.6 1.88e-14,47.6 1.88e-14,47.6 2.17e-14,0.00"
       id="path5581" />
  </g>
  <g
     transform="translate(552.7558919999999 10.629921)"
     id="g5583"
     style="fill:none;stroke:#0000ff;stroke-opacity:1;stroke-width:0.03543307;stroke-miterlimit:4;stroke-dasharray:none">
    <title
       id="title5585">front</title>
    <path
       x1="0"
       y1="0"
       x2="191.338578"
       y2="0"
       joint="10.629921 35.43307 10.629921 10.629921"
       mill="0"
       style="fill:none;stroke:#0000ff;stroke-opacity:1;stroke-width:0.03543307;stroke-miterlimit:4;stroke-dasharray:none"
       d="M0.00,0.00 44.6,0.00 44.6,0.00 44.6,10.6 44.6,10.6 78.7,10.6 78.7,10.6 78.7,0.00 78.7,0.00 113,0.00 113,0.00 113,10.6 113,10.6 147,10.6 147,10.6 147,0.00 147,0.00 191,0.00"
       id="path5587" />
    <path
       x1="191.338578"
       y1="0"
       x2="191.338578"
       y2="354.3307"
       joint="-10.629921 35.43307 10.629921 10.629921"
       mill="0"
       style="fill:none;stroke:#0000ff;stroke-opacity:1;stroke-width:0.03543307;stroke-miterlimit:4;stroke-dasharray:none"
       d="M191,0.00 191,47.6 191,47.6 202,47.6 202,47.6 202,84.6 202,84.6 191,84.6 191,84.6 191,122 191,122 202,122 202,122 202,159 202,159 191,159 191,159 191,196 191,196 202,196 202,196 202,233 202,233 191,233 191,233 191,270 191,270 202,270 202,270 202,307 202,307 191,307 191,307 191,354"
       id="path5589" />
    <path
       x1="191.338578"
       y1="354.3307"
       x2="0"
       y2="354.3307"
       joint="10.629921 35.43307 10.629921 10.629921"
       mill="0"
       style="fill:none;stroke:#0000ff;stroke-opacity:1;stroke-width:0.03543307;stroke-miterlimit:4;stroke-dasharray:none"
       d="M191,354 147,354 147,354 147,344 113,344 113,344 113,354 113,354 78.7,354 78.7,354 78.7,344 44.6,344 44.6,344 44.6,354 44.6,354 0.00,354"
       id="path5591" />
    <path
       x1="0"
       y1="354.3307"
       x2="0"
       y2="0"
       joint="-10.629921 35.43307 10.629921 10.629921"
       mill="0"
       style="fill:none;stroke:#0000ff;stroke-opacity:1;stroke-width:0.03543307;stroke-miterlimit:4;stroke-dasharray:none"
       d="M0.00,354 2.92e-15,307 -10.6,307 -10.6,307 -10.6,270 -10.6,270 5.18e-15,270 5.18e-15,270 7.45e-15,233 -10.6,233 -10.6,233 -10.6,196 -10.6,196 9.71e-15,196 9.71e-15,196 1.20e-14,159 -10.6,159 -10.6,159 -10.6,122 -10.6,122 1.42e-14,122 1.42e-14,122 1.65e-14,84.6 -10.6,84.6 -10.6,84.6 -10.6,47.6 -10.6,47.6 1.88e-14,47.6 1.88e-14,47.6 2.17e-14,0.00"
       id="path5593" />
  </g>
  <g
     transform="translate(-191.338578 10.629921)"
     id="g5595"
     style="fill:none;stroke:#0000ff;stroke-opacity:1;stroke-width:0.03543307;stroke-miterlimit:4;stroke-dasharray:none">
    <title
       id="title5597">back</title>
    <path
       x1="0"
       y1="0"
       x2="191.338578"
       y2="0"
       joint="10.629921 35.43307 10.629921 10.629921"
       mill="0"
       style="fill:none;stroke:#0000ff;stroke-opacity:1;stroke-width:0.03543307;stroke-miterlimit:4;stroke-dasharray:none"
       d="M0.00,0.00 44.6,0.00 44.6,0.00 44.6,10.6 44.6,10.6 78.7,10.6 78.7,10.6 78.7,0.00 78.7,0.00 113,0.00 113,0.00 113,10.6 113,10.6 147,10.6 147,10.6 147,0.00 147,0.00 191,0.00"
       id="path5599" />
    <path
       x1="191.338578"
       y1="0"
       x2="191.338578"
       y2="354.3307"
       joint="-10.629921 35.43307 10.629921 10.629921"
       mill="0"
       style="fill:none;stroke:#0000ff;stroke-opacity:1;stroke-width:0.03543307;stroke-miterlimit:4;stroke-dasharray:none"
       d="M191,0.00 191,47.6 191,47.6 202,47.6 202,47.6 202,84.6 202,84.6 191,84.6 191,84.6 191,122 191,122 202,122 202,122 202,159 202,159 191,159 191,159 191,196 191,196 202,196 202,196 202,233 202,233 191,233 191,233 191,270 191,270 202,270 202,270 202,307 202,307 191,307 191,307 191,354"
       id="path5601" />
    <path
       x1="191.338578"
       y1="354.3307"
       x2="0"
       y2="354.3307"
       joint="10.629921 35.43307 10.629921 10.629921"
       mill="0"
       style="fill:none;stroke:#0000ff;stroke-opacity:1;stroke-width:0.03543307;stroke-miterlimit:4;stroke-dasharray:none"
       d="M191,354 147,354 147,354 147,344 113,344 113,344 113,354 113,354 78.7,354 78.7,354 78.7,344 44.6,344 44.6,344 44.6,354 44.6,354 0.00,354"
       id="path5603" />
    <path
       x1="0"
       y1="354.3307"
       x2="0"
       y2="0"
       joint="-10.629921 35.43307 10.629921 10.629921"
       mill="0"
       style="fill:none;stroke:#0000ff;stroke-opacity:1;stroke-width:0.03543307;stroke-miterlimit:4;stroke-dasharray:none"
       d="M0.00,354 2.92e-15,307 -10.6,307 -10.6,307 -10.6,270 -10.6,270 5.18e-15,270 5.18e-15,270 7.45e-15,233 -10.6,233 -10.6,233 -10.6,196 -10.6,196 9.71e-15,196 9.71e-15,196 1.20e-14,159 -10.6,159 -10.6,159 -10.6,122 -10.6,122 1.42e-14,122 1.42e-14,122 1.65e-14,84.6 -10.6,84.6 -10.6,84.6 -10.6,47.6 -10.6,47.6 1.88e-14,47.6 1.88e-14,47.6 2.17e-14,0.00"
       id="path5605" />
  </g>
  <g
     transform="translate(10.629921 375.590542)"
     id="g5607"
     style="fill:none;stroke:#0000ff;stroke-opacity:1;stroke-width:0.03543307;stroke-miterlimit:4;stroke-dasharray:none">
    <title
       id="title5609">left</title>
    <path
       x1="10.629921"
       y1="0"
       x2="520.866129"
       y2="0"
       joint="-10.629921 35.43307 0 0"
       mill="0"
       style="fill:none;stroke:#0000ff;stroke-opacity:1;stroke-width:0.03543307;stroke-miterlimit:4;stroke-dasharray:none"
       d="M10.6,0.00 49.9,0.00 49.9,0.00 49.9,-10.6 49.9,-10.6 89.1,-10.6 89.1,-10.6 89.1,0.00 89.1,0.00 128,0.00 128,0.00 128,-10.6 128,-10.6 168,-10.6 168,-10.6 168,0.00 168,0.00 207,0.00 207,0.00 207,-10.6 207,-10.6 246,-10.6 246,-10.6 246,0.00 246,0.00 285,0.00 285,0.00 285,-10.6 285,-10.6 325,-10.6 325,-10.6 325,0.00 325,0.00 364,0.00 364,0.00 364,-10.6 364,-10.6 403,-10.6 403,-10.6 403,0.00 403,0.00 442,0.00 442,0.00 442,-10.6 442,-10.6 482,-10.6 482,-10.6 482,0.00 482,0.00 521,0.00"
       id="path5611" />
    <path
       x1="520.866129"
       y1="0"
       x2="520.866129"
       y2="191.338578"
       joint="-10.629921 35.43307 10.629921 10.629921"
       mill="0"
       style="fill:none;stroke:#0000ff;stroke-opacity:1;stroke-width:0.03543307;stroke-miterlimit:4;stroke-dasharray:none"
       d="M521,0.00 521,44.6 521,44.6 531,44.6 531,44.6 531,78.7 531,78.7 521,78.7 521,78.7 521,113 521,113 531,113 531,113 531,147 531,147 521,147 521,147 521,191"
       id="path5613" />
    <path
       x1="520.866129"
       y1="191.338578"
       x2="10.629921"
       y2="191.338578"
       joint="-10.629921 35.43307 0 0"
       mill="0"
       style="fill:none;stroke:#0000ff;stroke-opacity:1;stroke-width:0.03543307;stroke-miterlimit:4;stroke-dasharray:none"
       d="M521,191 482,191 482,191 482,202 482,202 442,202 442,202 442,191 403,191 403,191 403,202 403,202 364,202 364,202 364,191 325,191 325,191 325,202 325,202 285,202 285,202 285,191 246,191 246,191 246,202 246,202 207,202 207,202 207,191 168,191 168,191 168,202 168,202 128,202 128,202 128,191 89.1,191 89.1,191 89.1,202 89.1,202 49.9,202 49.9,202 49.9,191 10.6,191"
       id="path5615" />
    <path
       x1="10.629921"
       y1="191.338578"
       x2="10.629921"
       y2="0"
       joint="-10.629921 35.43307 10.629921 10.629921"
       mill="0"
       style="fill:none;stroke:#0000ff;stroke-opacity:1;stroke-width:0.03543307;stroke-miterlimit:4;stroke-dasharray:none"
       d="M10.6,191 10.6,147 3.55e-15,147 3.55e-15,147 5.33e-15,113 5.33e-15,113 10.6,113 10.6,113 10.6,78.7 7.11e-15,78.7 7.11e-15,78.7 8.88e-15,44.6 8.88e-15,44.6 10.6,44.6 10.6,44.6 10.6,0.00"
       id="path5617" />
  </g>
  <g
     transform="translate(10.629921 -191.338578)"
     id="g5619"
     style="fill:none;stroke:#0000ff;stroke-opacity:1;stroke-width:0.03543307;stroke-miterlimit:4;stroke-dasharray:none">
    <title
       id="title5621">right</title>
    <path
       x1="10.629921"
       y1="0"
       x2="520.866129"
       y2="0"
       joint="-10.629921 35.43307 0 0"
       mill="0"
       style="fill:none;stroke:#0000ff;stroke-opacity:1;stroke-width:0.03543307;stroke-miterlimit:4;stroke-dasharray:none"
       d="M10.6,0.00 49.9,0.00 49.9,0.00 49.9,-10.6 49.9,-10.6 89.1,-10.6 89.1,-10.6 89.1,0.00 89.1,0.00 128,0.00 128,0.00 128,-10.6 128,-10.6 168,-10.6 168,-10.6 168,0.00 168,0.00 207,0.00 207,0.00 207,-10.6 207,-10.6 246,-10.6 246,-10.6 246,0.00 246,0.00 285,0.00 285,0.00 285,-10.6 285,-10.6 325,-10.6 325,-10.6 325,0.00 325,0.00 364,0.00 364,0.00 364,-10.6 364,-10.6 403,-10.6 403,-10.6 403,0.00 403,0.00 442,0.00 442,0.00 442,-10.6 442,-10.6 482,-10.6 482,-10.6 482,0.00 482,0.00 521,0.00"
       id="path5623" />
    <path
       x1="520.866129"
       y1="0"
       x2="520.866129"
       y2="191.338578"
       joint="-10.629921 35.43307 10.629921 10.629921"
       mill="0"
       style="fill:none;stroke:#0000ff;stroke-opacity:1;stroke-width:0.03543307;stroke-miterlimit:4;stroke-dasharray:none"
       d="M521,0.00 521,44.6 521,44.6 531,44.6 531,44.6 531,78.7 531,78.7 521,78.7 521,78.7 521,113 521,113 531,113 531,113 531,147 531,147 521,147 521,147 521,191"
       id="path5625" />
    <path
       x1="520.866129"
       y1="191.338578"
       x2="10.629921"
       y2="191.338578"
       joint="-10.629921 35.43307 0 0"
       mill="0"
       style="fill:none;stroke:#0000ff;stroke-opacity:1;stroke-width:0.03543307;stroke-miterlimit:4;stroke-dasharray:none"
       d="M521,191 482,191 482,191 482,202 482,202 442,202 442,202 442,191 403,191 403,191 403,202 403,202 364,202 364,202 364,191 325,191 325,191 325,202 325,202 285,202 285,202 285,191 246,191 246,191 246,202 246,202 207,202 207,202 207,191 168,191 168,191 168,202 168,202 128,202 128,202 128,191 89.1,191 89.1,191 89.1,202 89.1,202 49.9,202 49.9,202 49.9,191 10.6,191"
       id="path5627" />
    <path
       x1="10.629921"
       y1="191.338578"
       x2="10.629921"
       y2="0"
       joint="-10.629921 35.43307 10.629921 10.629921"
       mill="0"
       style="fill:none;stroke:#0000ff;stroke-opacity:1;stroke-width:0.03543307;stroke-miterlimit:4;stroke-dasharray:none"
       d="M10.6,191 10.6,147 3.55e-15,147 3.55e-15,147 5.33e-15,113 5.33e-15,113 10.6,113 10.6,113 10.6,78.7 7.11e-15,78.7 7.11e-15,78.7 8.88e-15,44.6 8.88e-15,44.6 10.6,44.6 10.6,44.6 10.6,0.00"
       id="path5629" />
  </g>
  <path
     sodipodi:type="arc"
     style="fill:none;stroke:#0000ff;stroke-width:0.05869563;stroke-miterlimit:4;stroke-opacity:1;stroke-dasharray:none"
     id="path6167"
     sodipodi:cx="357.08893"
     sodipodi:cy="412.80344"
     sodipodi:rx="23.334524"
     sodipodi:ry="22.627417"
     d="m 380.42345,412.80344 a 23.334524,22.627417 0 1 1 -46.66905,0 23.334524,22.627417 0 1 1 46.66905,0 z"
     transform="matrix(0.59445784,0,0,0.61303467,-95.612661,-65.041758)" />
  <rect
     style="fill:none;stroke:#0000ff;stroke-width:0.03543307;stroke-linecap:butt;stroke-linejoin:miter;stroke-miterlimit:4;stroke-opacity:1;stroke-dasharray:none"
     id="rect6175"
     width="258.53793"
     height="98.537933"
     x="227.23141"
     y="138.23064" />
</svg>
